<?xml version="1.0" encoding="iso-8859-1"?>
<!-- Uploaded to: SVG Repo, www.svgrepo.com, Generator: SVG Repo Mixer Tools -->
<!DOCTYPE svg PUBLIC "-//W3C//DTD SVG 1.1//EN" "http://www.w3.org/Graphics/SVG/1.1/DTD/svg11.dtd">
<svg fill="#000000" height="800px" width="800px" version="1.1" id="Capa_1" xmlns="http://www.w3.org/2000/svg" xmlns:xlink="http://www.w3.org/1999/xlink" 
	 viewBox="0 0 437.713 437.713" xml:space="preserve">
<g>
	<path d="M401.316,104.341l-43.664-4.933l18.726-7.519c1.37-0.55,2.427-1.678,2.888-3.08l15.467-47.123
		c0.5-1.524,0.239-3.194-0.701-4.492c-0.94-1.299-2.446-2.067-4.05-2.067H243.084l-7.436-31.283C235.113,1.591,233.101,0,230.784,0
		h-44.132c-2.761,0-5,2.238-5,5v30.127h-35.341c-2.761,0-5,2.238-5,5v9.314h-31.365v-9.314c0-2.762-2.239-5-5-5H45.863
		c-2.761,0-5,2.238-5,5v77.729c0,1.957,1.142,3.735,2.923,4.548l12.541,5.728l-20.547,4.982c-2.243,0.544-3.822,2.552-3.822,4.859
		v55.378c0,2.372,1.667,4.418,3.99,4.897l49.685,10.244v6.475l-20.494,5.195c-2.218,0.563-3.772,2.559-3.772,4.847v32.194
		c0,2.762,2.239,5,5,5h115.285v170.511c0,2.762,2.239,5,5,5h47.711c2.496,0,4.61-1.842,4.953-4.314l16.697-120.632
		c0.189-1.37-0.197-2.759-1.068-3.833c-0.871-1.075-2.148-1.741-3.528-1.84l-12.217-0.872l-1.573-44.02h138.464c2.762,0,5-2.238,5-5
		v-61.435c0-2.762-2.238-5-5-5h-35.938v-4.673l61.667-13.454c2.297-0.501,3.935-2.534,3.935-4.885V109.31
		C405.755,106.766,403.845,104.627,401.316,104.341z M191.652,10h35.181l5.972,25.127h-41.152V10z M229.366,311.067
		c0.092,2.553,2.093,4.627,4.641,4.809l11.368,0.812l-15.367,111.025h-38.355V262.202h35.969L229.366,311.067z M395.755,163.729
		l-61.667,13.454c-2.297,0.501-3.935,2.534-3.935,4.885v13.699c0,2.762,2.238,5,5,5h35.938v51.435H71.367v-23.304l20.494-5.195
		c2.218-0.563,3.771-2.559,3.771-4.847v-14.439c0-2.372-1.667-4.418-3.99-4.897l-49.685-10.244v-47.371l30.768-7.459
		c2.071-0.502,3.596-2.262,3.799-4.384c0.203-2.121-0.962-4.139-2.9-5.023l-22.762-10.396V45.127h49.083v9.314c0,2.762,2.239,5,5,5
		h41.365c2.761,0,5-2.238,5-5v-9.314h231.767L370.49,83.478l-34.954,14.035c-2.125,0.854-3.399,3.041-3.092,5.31
		c0.308,2.27,2.118,4.04,4.394,4.298l58.917,6.655V163.729z"/>
	<g>
		<g>
			<g>
				<path d="M192.59,173.809c-12.385,0-22.461-10.076-22.461-22.461c0-12.385,10.076-22.461,22.461-22.461
					c12.386,0,22.463,10.076,22.463,22.461C215.053,163.732,204.976,173.809,192.59,173.809z M192.59,138.887
					c-6.871,0-12.461,5.59-12.461,12.461c0,6.871,5.59,12.461,12.461,12.461c6.872,0,12.463-5.59,12.463-12.461
					C205.053,144.477,199.462,138.887,192.59,138.887z"/>
			</g>
			<g>
				<path d="M245.122,173.809c-12.385,0-22.461-10.076-22.461-22.461c0-12.385,10.076-22.461,22.461-22.461
					c12.385,0,22.461,10.076,22.461,22.461C267.583,163.732,257.507,173.809,245.122,173.809z M245.122,138.887
					c-6.871,0-12.461,5.59-12.461,12.461c0,6.871,5.59,12.461,12.461,12.461c6.871,0,12.461-5.59,12.461-12.461
					C257.583,144.477,251.993,138.887,245.122,138.887z"/>
			</g>
		</g>
		<path d="M276.856,95.274c-8.688-7.644-30.678-20.58-57.99-20.58c-33.047,0-54.13,17.149-58.018,20.584
			c-18.881,16.653-29.71,40.633-29.71,65.788c0,17.989,14.61,32.625,32.568,32.625h10.141v14.35c0,8.047,6.546,14.593,14.592,14.593
			c8.047,0,14.595-6.546,14.595-14.593v-4.757h1.23v4.757c0,8.047,6.546,14.593,14.593,14.593c8.047,0,14.594-6.546,14.594-14.593
			v-4.757h1.229v4.757c0,8.047,6.546,14.593,14.592,14.593c8.047,0,14.594-6.546,14.594-14.593v-14.35h10.143
			c17.958,0,32.568-14.636,32.568-32.625C306.575,135.915,295.745,111.936,276.856,95.274z M274.007,183.691h-15.143
			c-2.762,0-5,2.238-5,5v19.35c0,2.532-2.061,4.593-4.594,4.593c-2.532,0-4.592-2.061-4.592-4.593v-9.757c0-2.762-2.238-5-5-5
			H228.45c-2.762,0-5,2.238-5,5v9.757c0,2.532-2.061,4.593-4.594,4.593c-2.533,0-4.593-2.061-4.593-4.593v-9.757
			c0-2.762-2.239-5-5-5h-11.23c-2.761,0-5,2.238-5,5v9.757c0,2.532-2.061,4.593-4.595,4.593c-2.532,0-4.592-2.061-4.592-4.593
			v-19.35c0-2.762-2.239-5-5-5h-15.141c-12.444,0-22.568-10.15-22.568-22.625c0-22.287,9.595-43.532,26.328-58.291
			c3.417-3.02,21.955-18.081,51.399-18.081c24.334,0,43.749,11.37,51.38,18.084c16.732,14.76,26.329,36.005,26.329,58.288
			C296.575,173.542,286.451,183.691,274.007,183.691z"/>
	</g>
</g>
</svg>