<?xml version="1.0" encoding="iso-8859-1"?>
<!-- Uploaded to: SVG Repo, www.svgrepo.com, Generator: SVG Repo Mixer Tools -->
<svg version="1.1" id="Layer_1" xmlns="http://www.w3.org/2000/svg" xmlns:xlink="http://www.w3.org/1999/xlink" 
	 viewBox="0 0 511.997 511.997" xml:space="preserve">
<rect x="57.275" y="114.55" style="fill:#E6E6E6;" width="397.447" height="397.447"/>
<circle style="fill:#CCCCCC;" cx="256.004" cy="313.279" r="149.496"/>
<path style="fill:#B3B3B3;" d="M255.999,163.783c-6.526,0-12.954,0.42-19.259,1.231c73.464,9.45,130.233,72.223,130.233,148.26
	s-56.767,138.81-130.233,148.26c6.305,0.811,12.733,1.231,19.259,1.231c82.561,0,149.492-66.93,149.492-149.492
	S338.562,163.783,255.999,163.783z"/>
<path style="fill:#F2F2F2;" d="M256.001,471.52c-87.257,0-158.246-70.989-158.246-158.246s70.989-158.246,158.246-158.246
	s158.246,70.989,158.246,158.246S343.257,471.52,256.001,471.52z M256.001,172.537c-77.603,0-140.737,63.134-140.737,140.737
	s63.134,140.737,140.737,140.737s140.737-63.134,140.737-140.737S333.603,172.537,256.001,172.537z"/>
<g>
	<path style="fill:#FFCA6C;" d="M216.315,86.374h-31.515c-3.546,0-6.42-2.874-6.42-6.42c0-11.543,5.564-22.499,14.882-29.31
		l5.847-4.272c6.023-4.402,9.619-11.483,9.619-18.943v-5.836c0-4.828-3.926-8.754-8.754-8.754c-4.828,0-8.754,3.926-8.754,8.754
		v5.836c0,3.546-2.874,6.42-6.42,6.42s-6.42-2.874-6.42-6.42v-5.836C178.381,9.687,188.068,0,199.975,0s21.593,9.687,21.593,21.593
		v5.836c0,11.543-5.564,22.499-14.883,29.31l-5.847,4.272c-4.253,3.108-7.295,7.553-8.717,12.523h24.194
		c3.546,0,6.42,2.874,6.42,6.42C222.735,83.5,219.86,86.374,216.315,86.374z"/>
	<path style="fill:#FFCA6C;" d="M273.509,86.374h-31.515c-3.546,0-6.42-2.874-6.42-6.42c0-11.543,5.564-22.499,14.882-29.31
		l5.847-4.272c6.023-4.402,9.619-11.483,9.619-18.943v-5.836c0-4.828-3.927-8.754-8.754-8.754s-8.754,3.926-8.754,8.754v5.836
		c0,3.546-2.874,6.42-6.42,6.42s-6.42-2.874-6.42-6.42v-5.836C235.574,9.687,245.261,0,257.168,0s21.593,9.687,21.593,21.593v5.836
		c0,11.543-5.564,22.499-14.883,29.31l-5.847,4.272c-4.253,3.108-7.295,7.553-8.717,12.523h24.194c3.546,0,6.42,2.874,6.42,6.42
		C279.928,83.5,277.054,86.374,273.509,86.374z"/>
	<path style="fill:#FFCA6C;" d="M311.443,86.374c-12.229,0-22.177-9.948-22.177-22.177v-42.02C289.266,9.948,299.214,0,311.443,0
		l0,0c12.229,0,22.177,9.948,22.177,22.177v42.02C333.62,76.425,323.671,86.374,311.443,86.374z M311.443,12.839
		c-5.149,0-9.338,4.189-9.338,9.338v42.02c0,5.149,4.188,9.338,9.338,9.338c5.15,0,9.338-4.189,9.338-9.338v-42.02
		C320.781,17.028,316.592,12.839,311.443,12.839z"/>
</g>
<g>
	<circle style="fill:#4D4D4D;" cx="189.473" cy="313.279" r="21.01"/>
	<circle style="fill:#4D4D4D;" cx="322.535" cy="313.279" r="21.01"/>
</g>
</svg>